<?xml version="1.0" encoding="UTF-8" standalone="no"?>
<svg
   xmlns:dc="http://purl.org/dc/elements/1.1/"
   xmlns:cc="http://creativecommons.org/ns#"
   xmlns:rdf="http://www.w3.org/1999/02/22-rdf-syntax-ns#"
   xmlns:svg="http://www.w3.org/2000/svg"
   xmlns="http://www.w3.org/2000/svg"
   viewBox="0 0 807.38666 590.65332"
   height="590.65332"
   width="807.38666"
   xml:space="preserve"
   id="svg2"
   version="1.1"><metadata
     id="metadata8"><rdf:RDF><cc:Work
         rdf:about=""><dc:format>image/svg+xml</dc:format><dc:type
           rdf:resource="http://purl.org/dc/dcmitype/StillImage" /></cc:Work></rdf:RDF></metadata><defs
     id="defs6"><clipPath
       id="clipPath20"
       clipPathUnits="userSpaceOnUse"><path
         id="path18"
         d="M 0,0 H 6055 V 4429.87 H 0 Z" /></clipPath></defs><g
     transform="matrix(1.3333333,0,0,-1.3333333,0,590.65333)"
     id="g10"><g
       transform="scale(0.1)"
       id="g12"><g
         id="g14"><g
           clip-path="url(#clipPath20)"
           id="g16"><path
             id="path22"
             style="fill:#8d198f;fill-opacity:1;fill-rule:nonzero;stroke:none"
             d="m 5628.45,508.25 c -2.37,4.742 -9.31,10.352 -20.84,16.852 -11.54,6.507 -21.15,9.757 -28.83,9.757 -8.87,0 -17.44,-3.109 -25.72,-9.32 -8.28,-6.207 -12.43,-14.328 -12.43,-24.379 0,-17.148 10.06,-27.789 30.17,-31.93 8.87,-1.781 17.44,-2.671 25.72,-2.671 l 31.93,41.691 z m 258.12,-48.781 c 0,-18.328 -27.5,-48.188 -82.49,-89.59 -58.54,-43.758 -106.14,-65.637 -142.81,-65.637 -24.24,0 -41.69,5.617 -52.33,16.86 -8.28,8.867 -12.42,21.277 -12.42,37.25 0,3.539 3.84,16.269 11.53,38.136 4.14,12.414 6.51,19.512 7.1,21.293 -21.29,-28.972 -50.27,-55.89 -86.93,-80.722 -32.53,-21.879 -61.79,-32.817 -87.81,-32.817 -20.7,0 -38.14,6.508 -52.33,19.52 -14.19,13 -21.29,29.558 -21.29,49.66 0,26.027 5.92,44.648 17.74,55.879 8.87,8.871 21.29,13.308 37.25,13.308 14.2,0 24.84,-4.14 31.93,-12.418 7.1,-8.269 10.65,-18.332 10.65,-30.152 0,-8.289 1.63,-13.297 4.88,-15.078 3.25,-1.781 8.43,-2.672 15.52,-2.672 8.28,0 19.21,3.563 32.82,10.652 13.6,7.098 25.13,15.379 34.59,24.84 -18.92,0 -36.66,4.43 -53.21,13.301 -26.03,13.598 -39.04,34.297 -39.04,62.09 0,26.609 11.83,48.777 35.48,66.519 23.65,17.75 51.45,26.618 83.38,26.618 24.83,0 46.12,-3.399 63.87,-10.2 17.73,-6.808 26.61,-14.05 26.61,-21.738 13.01,0 24.98,-2.961 35.92,-8.871 10.93,-5.91 16.4,-13.602 16.4,-23.059 0,-10.05 -7.38,-31.632 -22.17,-64.75 -14.78,-33.109 -22.17,-52.332 -22.17,-57.652 0,-11.828 5.61,-17.75 16.85,-17.75 16.55,0 41.1,10.5 73.62,31.5 32.52,20.981 65.35,42.723 98.46,65.191 7.09,0 12.27,-1.339 15.52,-3.992 3.25,-2.656 4.88,-7.828 4.88,-15.519 z m -476.32,0 c 0,-13.02 -28.53,-41.399 -85.59,-85.16 -57.06,-43.758 -97.73,-65.629 -121.96,-65.629 -28.39,0 -48.49,5.91 -60.32,17.73 -9.46,9.469 -14.2,22.781 -14.2,39.922 0,5.328 1.49,12.867 4.44,22.617 2.96,9.762 7.1,19.66 12.42,29.711 -12.42,-5.91 -27.5,-10.199 -45.24,-12.851 -17.74,-2.668 -33.4,-4 -47.01,-4 h -15.96 c -2.37,-5.911 -5.03,-13.309 -7.98,-22.168 -2.96,-8.871 -4.74,-15.672 -5.32,-20.399 -2.38,-11.832 -4.45,-23.363 -6.22,-34.594 -4.14,-13.019 -14.18,-19.527 -30.16,-19.527 -15.37,0 -25.87,5.918 -31.49,17.75 -5.61,11.82 -8.42,26.32 -8.42,43.461 0,8.867 3.25,20.41 9.75,34.59 2.96,5.91 7.99,15.379 15.09,28.379 -16.56,13.019 -24.84,24.539 -24.84,34.601 0,7.688 1.92,13.598 5.77,17.739 3.84,4.14 7.23,6.211 10.19,6.211 8.28,0 18.33,-5.032 30.16,-15.082 4.74,7.691 11.24,20.109 19.52,37.261 8.27,17.141 13.9,28.078 16.85,32.821 4.14,8.867 10.06,16.097 17.74,21.73 7.69,5.609 15.67,8.418 23.95,8.418 11.82,0 19.21,-3.551 22.17,-10.641 1.19,-2.961 1.78,-10.949 1.78,-23.949 -0.59,-7.691 -6.81,-23.351 -18.63,-47.019 -3.55,-7.09 -9.46,-19.512 -17.74,-37.243 16.56,0 29.27,0.731 38.14,2.211 8.87,1.481 22.47,5.473 40.81,11.981 8.87,2.961 16.26,6.211 22.17,9.75 10.05,5.922 15.37,9.16 15.96,9.762 8.29,19.507 18.19,34.296 29.72,44.347 11.52,10.051 22.02,15.082 31.49,15.082 7.09,0 11.67,-3.101 13.75,-9.312 2.07,-6.219 3.1,-14.34 3.1,-24.399 0,-8.871 -8.57,-30.449 -25.72,-64.738 -17.15,-34.301 -25.72,-55 -25.72,-62.09 0,-7.101 2.95,-10.652 8.86,-10.652 24.25,0 52.34,10.351 84.27,31.051 32.52,23.05 65.34,46.121 98.46,69.179 10.64,0 15.96,-5.621 15.96,-16.851 z m -436.4,-74.508 c 0,-11.832 -20.7,-28.981 -62.09,-51.449 -41.4,-22.473 -72.43,-33.711 -93.14,-33.711 -24.24,0 -41.24,6.211 -50.99,18.629 -9.76,12.422 -14.64,30.16 -14.64,53.23 0,4.129 0,8.57 0,13.301 1.18,6.5 1.78,11.23 1.78,14.187 -31.94,-27.796 -59.73,-49.078 -83.38,-63.859 -33.12,-20.109 -61.8,-30.168 -86.05,-30.168 -17.15,0 -30.9,5.18 -41.24,15.531 -10.35,10.34 -15.53,23.508 -15.53,39.469 0,2.367 0.6,7.09 1.78,14.188 4.73,23.07 13.9,48.203 27.5,75.402 7.69,14.781 23.95,43.75 48.78,86.93 5.32,8.269 13.16,16.839 23.51,25.718 10.35,8.871 18.78,12.411 25.28,10.641 7.69,-2.949 11.52,-8.871 11.52,-17.738 -0.58,-7.102 -0.88,-12.711 -0.88,-16.852 0,-7.09 -8.28,-29.269 -24.84,-66.531 -16.55,-37.25 -24.83,-60.309 -24.83,-69.18 0,-6.508 3.55,-9.758 10.64,-9.758 12.42,0 28.39,4.731 47.9,14.2 19.51,9.461 40.22,22.16 62.09,38.129 2.36,1.781 21.58,23.07 57.66,63.871 13.6,15.371 23.35,23.058 29.27,23.058 9.46,0 15.96,-3.84 19.51,-11.527 3.55,-7.68 5.32,-16.262 5.32,-25.723 -7.69,-21.89 -14.63,-41.84 -20.84,-59.867 -6.21,-18.043 -9.32,-33.273 -9.32,-45.691 0,-15.969 3.26,-23.942 9.76,-23.942 18.34,0 39.47,3.832 63.43,11.531 23.94,7.68 48.63,15.961 74.06,24.829 5.32,-1.18 7.98,-6.797 7.98,-16.848 z m 12.42,337.949 c 0,-7.691 -7.69,-18.488 -23.07,-32.39 -15.37,-13.891 -35.48,-26.301 -60.31,-37.239 -24.83,-10.949 -46.27,-18.781 -64.31,-23.511 -18.03,-4.731 -32.67,-7.098 -43.9,-7.098 -29.57,0 -53.22,5.91 -70.96,17.75 -20.11,15.367 -30.16,33.699 -30.16,54.988 0,4.719 0.3,8.281 0.88,10.641 2.96,13.609 9.76,23.508 20.4,29.719 10.65,6.21 23.96,9.312 39.93,9.312 11.23,0 20.24,-2.66 27.05,-7.98 6.79,-5.332 12.86,-12.43 18.18,-21.293 3.54,-5.918 7.39,-13.75 11.53,-23.508 4.13,-9.75 8.27,-14.93 12.42,-15.52 16.56,0 30.01,1.629 40.36,4.879 10.35,3.25 24.09,8.719 41.24,16.399 24.84,13.613 41.1,22.332 48.79,26.183 7.68,3.828 14.19,5.758 19.51,5.758 8.28,0 12.42,-2.371 12.42,-7.09 z M 4443.43,494.949 c 0,10.051 -3.85,15.082 -11.54,15.082 -13,1.18 -26.9,-4.742 -41.68,-17.75 -11.24,-10.051 -21.59,-22.761 -31.05,-38.133 18.33,0 36.95,4.872 55.88,14.633 18.92,9.758 28.39,18.469 28.39,26.168 z m 125.95,-99.347 c 0,-13.602 -22.17,-31.34 -66.53,-53.223 -50.26,-24.828 -98.15,-37.258 -143.69,-37.258 -19.51,0 -35.77,4.738 -48.79,14.199 -7.09,4.731 -16.26,14.489 -27.49,29.27 -5.92,7.101 -9.61,14.039 -11.08,20.84 -1.49,6.808 -2.23,16.711 -2.23,29.718 0,31.344 13.01,67.711 39.03,109.102 32.52,52.039 70.67,78.059 114.43,78.059 27.19,0 47.45,-5.77 60.75,-17.297 13.31,-11.532 19.96,-27.653 19.96,-48.34 0,-26.024 -17.44,-52.641 -52.33,-79.832 -31.94,-24.84 -62.69,-38.731 -92.25,-41.692 0,-9.468 3.25,-16.558 9.76,-21.289 6.5,-4.73 15.07,-7.089 25.72,-7.089 27.21,0 59.43,7.39 96.68,22.171 17.74,7.688 35.49,15.379 53.22,23.059 9.46,0 15.97,-1.031 19.51,-3.102 3.56,-2.066 5.33,-7.828 5.33,-17.296 z m -541.96,85.16 c 0,2.949 0.6,8.867 1.78,17.73 1.18,8.867 1.78,15.68 1.78,20.399 0,14.789 -5.34,22.179 -15.97,22.179 -26.03,0 -54.11,-13.601 -84.27,-40.8 -33.11,-30.161 -49.68,-60.61 -49.68,-91.368 0,-5.91 0,-11.82 0,-17.73 1.78,-10.063 7.7,-15.082 17.75,-15.082 16.55,0 39.62,13.898 69.19,41.691 3.54,3.551 23.36,24.539 59.42,62.981 z m 178.29,14.187 c 0,12.41 -1.63,21.731 -4.88,27.942 -3.25,6.211 -9.9,9.308 -19.95,9.308 -13.6,0 -33.42,-15.078 -59.43,-45.238 -23.66,-27.199 -41.99,-54.402 -54.99,-81.602 0,-11.828 4.87,-21 14.62,-27.5 9.76,-6.507 19.08,-9.757 27.94,-9.757 31.35,0 55.88,13.308 73.63,39.918 15.37,23.66 23.06,52.628 23.06,86.929 z m 78.06,329.961 -158.78,-276.75 c 13.02,14.789 27.35,26.32 43.03,34.602 15.66,8.269 28.23,12.41 37.69,12.41 21.29,0 39.03,-7.684 53.22,-23.051 14.2,-15.379 21.28,-34.012 21.28,-55.883 0,-57.367 -23.35,-108.519 -70.06,-153.457 -40.22,-38.441 -76.59,-57.66 -109.11,-57.66 -11.24,0 -24.83,3.848 -40.8,11.539 -18.92,9.461 -29.86,19.809 -32.82,31.039 -20.69,-54.988 -39.18,-106.429 -55.44,-154.328 -16.26,-47.902 -30.9,-93.141 -43.9,-135.7187 C 3923.35,41.6914 3919.5,30.75 3916.55,24.8398 3909.45,8.28125 3897.63,0 3881.06,0 c -18.32,0 -30.3,2.96094 -35.91,8.87109 -5.62,5.91021 -8.43,13.30081 -8.43,22.16801 0,8.2812 5.61,26.0312 16.85,53.2226 5.91,14.7891 15.08,34.8983 27.49,60.3283 34.9,71.539 70.08,143.09 105.56,214.652 -11.83,-11.832 -26.01,-22.773 -42.58,-32.832 -23.05,-14.191 -42.87,-21.289 -59.42,-21.289 -31.93,0 -54.55,5.481 -67.86,16.418 -13.3,10.941 -19.95,30.301 -19.95,58.102 0,39.609 26.61,88.097 79.82,145.461 55.59,59.73 105.85,89.578 150.79,89.578 12.42,0 24.25,-7.668 35.48,-23.051 11.24,-15.367 16.86,-29.27 16.86,-41.688 4.73,8.868 10.35,22.469 16.85,40.801 16.55,44.348 28.09,74.508 34.59,90.477 15.97,44.941 32.23,90.172 48.79,135.711 25.42,58.539 53.81,87.812 85.15,87.812 8.28,0 15.52,-3.703 21.74,-11.094 6.2,-7.386 9.3,-16.707 9.3,-27.937 0,-13.012 -4.14,-26.609 -12.41,-40.801 z M 3671.74,428.422 c 0,15.379 -2.96,23.949 -8.87,25.726 -11.83,2.954 -28.53,-6.648 -50.12,-28.828 -21.58,-22.179 -32.37,-38 -32.37,-47.461 0,-4.73 1.33,-9.609 3.99,-14.629 2.66,-5.031 6.35,-7.539 11.09,-7.539 15.97,0 32.67,9.008 50.11,27.047 17.45,18.043 26.17,33.262 26.17,45.684 z m 188.93,25.726 c 0,-11.828 -7.39,-22.179 -22.17,-31.046 -14.79,-8.872 -30.17,-13.313 -46.13,-13.313 -10.64,0 -20.99,1.633 -31.04,4.883 -10.06,3.258 -19.52,8.43 -28.39,15.519 -24.83,-33.109 -49.38,-65.929 -73.62,-98.449 -30.16,-28.98 -59.43,-43.461 -87.82,-43.461 -16.55,0 -32.52,6.211 -47.89,18.621 -17.74,14.789 -26.61,32.817 -26.61,54.11 0,43.168 24.84,86.629 74.5,130.379 42.58,37.257 75.4,55.89 98.46,55.89 34.89,0 58.84,-7.101 71.85,-21.289 9.46,-10.062 14.2,-25.433 14.2,-46.133 5.9,-4.73 13.44,-8.558 22.61,-11.519 9.17,-2.961 17.01,-4.438 23.51,-4.438 5.91,0 14.63,1.618 26.16,4.879 11.53,3.25 18.18,4.879 19.96,4.879 8.28,0 12.42,-6.5 12.42,-19.512 z m -272.31,10.633 c 0,-15.371 -24.54,-43.75 -73.62,-85.14 -54.99,-46.129 -102.3,-69.18 -141.92,-69.18 -29.57,0 -52.04,10.039 -67.41,30.148 -9.46,12.411 -16.55,30.45 -21.29,54.102 -23.06,-21.871 -41.09,-38.731 -54.1,-50.551 -24.84,-22.469 -42.88,-33.699 -54.11,-33.699 -12.42,0 -20.55,3.691 -24.4,11.078 -3.83,7.391 -5.76,17.883 -5.76,31.481 v 11.539 c 0,14.781 13.75,57.363 41.24,127.722 27.5,70.371 48.05,105.559 61.65,105.559 15.37,0 25.13,-2.668 29.27,-7.988 4.14,-5.313 6.21,-13.891 6.21,-25.723 0,-7.688 -11.23,-37.25 -33.7,-88.699 -8.88,-20.098 -17.74,-40.211 -26.61,-60.321 55.57,53.813 101.11,96.993 136.59,129.512 39.03,35.469 68.01,53.219 86.92,53.219 15.39,0 25.43,-4 30.17,-11.969 4.73,-7.992 7.09,-20.262 7.09,-36.82 0,-20.692 -24.83,-42.582 -74.5,-65.641 -34.89,-15.961 -60.91,-31.328 -78.06,-46.121 7.09,-16.559 14.48,-29.269 22.17,-38.141 11.83,-14.187 25.73,-21.289 41.69,-21.289 23.65,0 51.15,11.243 82.49,33.711 29.57,24.239 59.14,48.782 88.7,73.621 5.32,0 10.21,-2.222 14.64,-6.652 4.43,-4.437 6.65,-9.019 6.65,-13.758 v 0" /><path
             id="path24"
             style="fill:#4d2013;fill-opacity:1;fill-rule:nonzero;stroke:none"
             d="m 2471.73,4407.31 c 68.63,33.09 226.5,38.71 227.83,-45.33 3.52,-222.15 -158.34,-602.79 -183.03,-749.48 62.48,-5.78 177.51,49.36 236.64,50.73 10.11,-5.28 9.04,-16.61 6.12,-25.96 -12.63,-38.52 -41.58,-68.08 -72.06,-93.35 13.71,-19.07 26.81,-38.52 40.9,-57.36 2.37,14.78 3.21,29.79 7.42,44.11 32.17,43.19 88.07,51.47 134.41,71.53 25.37,175.51 184.4,642.07 94.58,809.55 68.76,36.81 225.6,9.48 230.89,-39.21 19.4,-178.62 -152.99,-586.67 -176.44,-759 155.28,15.47 224.82,58.87 241.16,45.18 28.35,-23.76 -36.04,-99.54 -80.69,-123.97 37.26,-42.73 48.84,-70.61 63.68,-125.61 15.22,-56.38 15.31,-115.42 15.24,-173.39 -0.09,-81.34 -12.4,-162.18 -24.28,-242.53 -16.83,-114.01 -32.95,-230.88 -83.92,-335.66 -23.28,-47.83 -67.66,-130.88 -137.02,-113.5 -39.22,9.83 -75.23,30.02 -106.6,54.53 -143.75,112.3 -66.76,633.82 -63.1,811.85 -38.75,9.95 -71.99,33.24 -110.28,44.03 48.84,-180.3 25.39,-432.51 -15.09,-612.51 -17.48,-77.75 -71.46,-300.36 -177.13,-299.74 -75.43,0.44 -173.22,80.42 -189.31,151.02 -48.18,211.34 -15.77,572.8 -6.28,719.26 -37.07,8.66 -69.77,28.57 -104.23,43.89 -15.93,53.83 1.07,110.74 25.96,159.06 19.07,34.23 53.64,102.45 66.63,97.1 37.32,-15.36 5.51,-80.18 3.75,-120.53 16.75,0.37 26.43,1.55 34.5,1.6 51.94,310.43 149.06,439.52 119.2,796.15 -6.66,5.75 -13.25,11.41 -19.45,17.54 z m 21.63,-966.81 c -23.86,-74.08 -34.42,-655.43 -19.64,-722.98 13.05,-59.64 82.35,-44.77 102.01,0.38 76.53,175.77 102.55,468.07 77.35,662.67 -4.73,36.5 -22.83,68.85 -40.67,100.09 -40.44,-1.22 -81.9,-26.84 -119.05,-40.16 z m 572.27,36.72 c -25.04,-13.71 -62.29,-26.23 -84.42,-44.54 -12.59,-67.46 -29.22,-574.87 -22.95,-656.65 5.56,-72.73 36.64,-110.13 75.85,-97.57 109.55,35.1 156.85,648.17 86.5,777.47 -10.41,18.68 -34.39,35.92 -54.98,21.29 z M 946.82,4393.06 c 53.035,29.73 115.64,33.24 174,24.9 108.67,-15.55 254.42,-121.05 282.2,-182.27 35.55,-78.35 56.87,-281.21 -16.77,-343.63 -27.65,-23.43 -64.36,-33.18 -101.32,-25.35 -42.99,9.12 -66.43,50.82 -67.93,89.76 -2.76,71.96 23.19,292.57 -43.49,325.78 -49.08,24.44 -138.58,-7.42 -172.62,-50.7 -69.738,-88.65 -107.917,-197.84 -126.441,-307.32 -39.879,-235.68 -62.191,-700.49 209.301,-804.57 167.77,-64.32 323.2,114.86 336.2,270.02 2.96,35.34 -0.75,71.03 10.79,105.46 15.38,45.87 84.39,72.56 114.34,32.01 29.94,-40.54 10.23,-96.82 -2.83,-142.37 -58.8,-205.03 -188.87,-340.6 -413.24,-366.9 -269.596,-31.61 -423.194,210.18 -445.862,441.88 -20.593,210.44 -2.289,558.12 103.383,749.58 39.235,71.09 87.032,142.68 160.289,183.72 z m 3022.24,-609.74 c 39.11,66.52 95.53,128.68 173,148.03 58.34,14.58 114.42,-14.47 163.67,-55.89 137.34,-115.5 22.05,-479.8 -158.53,-506.45 -31.16,-4.6 -62.95,-2.15 -93.97,1.99 -8.41,-126.42 35.49,-233.75 171.93,-244 166.5,-12.5 204.22,189.1 235.03,302.12 3.41,12.53 13.26,28.1 25.73,27.42 71.75,-3.91 7.7,-188.22 -12.03,-233.88 -43.46,-100.58 -125.88,-174.5 -263.67,-183.96 -202.36,-13.88 -261.41,71.37 -323.25,209.61 -97.87,-202.97 -205.99,-231.26 -365.6,-209.91 -195.64,26.17 -249.77,253.35 -236.95,419.74 5.72,74.15 17.08,147.64 40.37,217.73 30.84,92.9 93,221.7 197.72,245.6 75.25,17.17 124.31,1.88 185.25,-39.21 134.48,-90.65 39.69,-460.79 -143.97,-513.48 -32.36,-9.29 -77.81,2.33 -107.76,14.89 -27.07,-110.41 70.09,-268.21 202.18,-252.14 134.27,16.33 191.58,177.97 208.08,286.33 9.35,61.39 18.82,122.18 32.4,182.5 14.37,63.84 36.91,126.02 70.37,182.96 z m -433.84,-57.06 c -37.03,-72.16 -68.75,-176.06 -72.51,-256.49 0,0 13.17,-16.7 28.71,-20.2 173.97,-39.17 207.95,308.8 163.66,349.98 -48.15,44.77 -101.45,-37.41 -119.86,-73.29 z m 590.07,-7.88 c -17.18,-42.55 -62.41,-161.46 -68.31,-267.93 21.84,-12.31 67.08,-7.6 90.75,-0.88 99.22,28.16 128.35,244.66 119.86,327.08 -8.35,80.96 -105.03,33.97 -142.3,-58.27 v 0" /><path
             id="path26"
             style="fill:#8d198f;fill-opacity:1;fill-rule:nonzero;stroke:none"
             d="m 4965.99,3941.46 c 153.35,200.1 425.75,122.68 409.34,-122.45 -5.44,-81.34 -37.66,-159 -86.77,-223.09 -21.9,-28.59 -46.79,-54.68 -67.7,-83.86 10.8,-33.24 34.61,-59.83 54.98,-87.45 32.4,-43.92 62.5,-89.37 93.37,-134.41 10.18,31.25 20.51,68.69 25.19,100.25 2.78,18.67 35.26,17.86 40.59,-5.44 13.08,-57.13 -5.21,-114.18 -15.09,-170.09 17.69,-37.14 42.03,-71.37 56.21,-110.2 8.58,-54.1 -73.54,-180.04 -123.44,-163.19 -18.92,26.8 -21.92,61.64 -36.93,90.74 -165.53,-210.59 -526.24,-63.43 -496.71,219.49 19.85,114.87 96.12,208.38 174.46,290.01 -67.34,134.67 -133.93,260.81 -27.5,399.69 z m 90.3,-68.16 c -4.01,-81.53 32.24,-159.29 78.73,-224.46 88.16,68.34 155.18,202.75 66.7,299.13 -60.54,65.94 -141.95,-4.12 -145.43,-74.67 z m 78.34,-825.79 c 56.52,-2.83 102.92,38.98 134.4,81.64 -58.2,90.75 -122.99,177.29 -178.97,269.57 -135.59,-120.72 -148.16,-348.47 44.57,-351.21 v 0" /><path
             id="path28"
             style="fill:#8d198f;fill-opacity:1;fill-rule:nonzero;stroke:none"
             d="m 2240.22,3366.71 c 27.97,-193.76 -40.19,-445.77 -294.08,-416.07 -131.59,15.39 -211.05,176.01 -146.19,297.83 28.39,53.33 100.86,83.08 156.92,55.36 -177.04,-19.59 -141.45,-240.99 -16.86,-276.76 143.1,-41.09 236.52,95.45 234.81,224.15 -1.92,143.8 -88.4,286.73 -247.13,280.67 -187.62,-7.14 -291.59,-183.36 -255.25,-357.86 62.41,-299.7 404.29,-468.85 397.69,-709 192.42,-92.87 632.23,-411.56 572.07,-650.65 -7.51,-29.85 -24.12,-56.29 -40.51,-82.09 110.72,-10.47 617.15,-61.99 664.5,-152.56 3.83,-53.6 11.45,-365.16 -208.69,-699.339 -135.05,-205.039 -332.06,-367.141 -553.69,-472.289 -12.86,-6.661 -27.03,-12.633 -36.45,-24.122 -1.37,-9.339 -1.91,-28.339 -1.91,-28.339 31.23,-10.149 147.74,-38.149 150.02,-76.121 6.87,-114.2 -660.87,-129.579 -785.17,-129.579 -136.41,0 -532.64,21.508 -659.7,69.379 477.63,-0.109 1621.52,266.629 1475.05,786.28 -109.89,294.27 -579.72,343.38 -840.03,362.61 -73.97,5.46 -405.21,3.03 -808.718,36.45 -57.168,4.74 -236.273,30.72 -269.414,36.69 -2.343,0.42 1.754,9.24 -0.613,9.5 617.085,-65.5 1303.415,-66.03 1917.705,40.44 52.59,9.11 125.05,30.87 149.25,61.87 13.02,16.68 -35.69,76.22 -249.35,104.39 0,0 -2.53,14.93 -3.83,22.28 -303.89,-180.09 -1828.295,-181.87 -1790.115,30.94 28.481,158.74 811.135,93.84 932.245,50.77 0,0 493.72,-2.22 598.87,-8.42 1.84,-15.94 -1.98,-58.32 -1.98,-58.32 -242.67,25.84 -736.63,25.84 -836.18,25.84 -46.68,0 -443.45,-14.7 -489.701,-20.67 231.171,-108.06 1434.671,-147.55 1551.251,86.31 101.51,203.61 -285.96,527.81 -461.03,611.51 -121.22,-142.37 -302.66,-229.08 -487.36,-245.07 -90.59,-7.84 -343.55,-23.14 -361.17,180.28 -18.12,209.22 209.47,271.22 309.47,276.46 173.01,9.08 338.5,-48.71 496.94,-109.66 -14.62,92.81 -82.83,163.63 -143.58,230.05 -165.49,180.92 -371.32,404.78 -277.24,674.38 116.52,333.91 610.57,298.95 659.15,-37.52 z m -772.18,-865.46 c -91.92,-55.22 -121.38,-196.96 -15.77,-254.33 153.72,-83.51 423.26,69.02 526.04,180.12 -132.06,62.11 -388.1,147.62 -510.27,74.21 z m -464.9,-780.61 c 222.08,18.19 494.91,27.24 494.91,27.24 -75.06,10.46 -410.21,3.62 -494.91,-27.24 z M 427.742,1444.72 c 96.496,-35.77 195.328,-65.06 296.914,-83.17 504.404,-89.86 1019.504,-51.45 1257.574,-87.38 185.44,-27.99 541.96,-76.65 594.03,-299.971 103.5,-443.828 -1218.07,-748 -1492.59,-674 58.43,37.903 128.82,48.321 195.29,63.711 C 1095.63,440.492 997.051,509.801 832.789,638.922 622.895,491.922 11.8906,586.371 0.1875,938.281 -8.87109,1210.58 315.781,1286.2 446.664,1297.84 c -5.363,49.09 -16.082,97.49 -18.922,146.88 z m 40.363,-242.84 c 5.512,-19.76 11.176,-39.44 17,-59.2 C 397.234,1128.71 212.996,1074.03 254.438,949.922 308.789,787.148 558.531,726.559 709.184,775.781 604.879,897.16 523.246,1039.91 480.742,1194.75 c -4.234,2.33 -8.476,4.69 -12.637,7.13 v 0" /><path
             id="path30"
             style="fill:#4d2013;fill-opacity:1;fill-rule:nonzero;stroke:none"
             d="m 5153.37,2544.48 c 103.69,42.77 186.82,-33.33 194.06,-133.34 -3.23,-215.43 -21.71,-823.36 -172.53,-948.16 8.74,-83.53 8.85,-220.6 126.05,-207.69 31.93,3.52 43.03,39.75 56.44,64.56 14.62,0.23 29.25,0.62 43.96,0.84 -1.84,370.48 2.22,874.2 2.53,1230.07 66.5,10.18 147.86,15.18 204.09,-25.43 -41.26,-168.36 -45.7,-488.83 -43.73,-668.63 27.79,71.25 114.32,227.52 204.48,227.06 38.16,-0.2 68.05,-32.06 85.08,-63.95 90.96,-170.31 -22.74,-415.82 -179.13,-494.41 31.39,-20.3 67.47,-37.83 86.15,-72.14 46.8,-52.88 44.56,-180.38 134.4,-133.25 68.45,35.9 90.22,306.58 108.83,381.06 3.44,19.99 20.29,31 38.9,23.82 20.87,-8.03 12.92,-127.28 -4.82,-216.65 -25.82,-130.21 -81.65,-267.19 -148.95,-281.28 -52.4,-10.98 -118.02,-8.81 -153.55,39.74 -40.43,61.19 -57.75,137.85 -113.65,188.62 -25.35,5.52 -51.62,1.91 -77.34,2.84 0.59,-46.81 12.73,-225.93 7.5,-254.26 -23.84,-34.35 -139.12,-36.24 -152.63,49.86 -65.71,-65.71 -173.47,-85.93 -257.09,-43.8 -53.16,33.61 -68.14,77.62 -86.61,133.33 -31.36,-43.91 -95.66,-144.83 -219.11,-102.17 -53.68,33.94 -81.25,95.65 -93.35,155.84 -36.93,-83.15 -67.72,-199.18 -169.79,-225.99 -151.39,-14.88 -229.31,68.42 -255.16,212.29 -24.61,177.61 -7.84,511.99 118.32,652.71 33.01,35.61 82.24,52.53 130.34,48.17 62.95,3.6 112.65,-42.5 173,-51.69 114.95,-44.92 80.69,-182.47 90.14,-276.85 18.83,-22.59 56.9,-26.88 64.71,-58.43 -7.27,-33 -28.26,-63.1 -28.26,-98.18 0.84,-58.05 -4.06,-116.63 5.74,-174.22 5.74,-37.3 10.41,-82.18 43.88,-105.53 49.02,-32.09 116.11,102.72 119.39,127.2 -25.01,332.8 -21.8,669.41 49.48,997.64 9.96,39.59 26.89,84.54 68.23,100.4 z m 8.39,-946.26 c 34.62,43.16 69.55,148.11 86.35,297.89 19.33,172.45 24.64,364.82 22.36,414.79 -0.62,33.62 -8.02,87.72 -39.59,87.08 -89.08,-1.83 -71.18,-725.17 -69.12,-799.76 z m 394.05,-43.5 c 24.66,1.16 50.83,-2.18 74.06,7.74 129.55,55.39 173.07,257.55 127.74,377.32 -51.97,137.32 -217.51,-222.89 -201.8,-385.06 z m -962.64,384.52 c -174.06,-51.8 -189.55,-612.7 -92.36,-682.88 147.53,-33.22 166.37,176.52 181.12,275.55 11.41,42.48 6.03,154.97 24.36,188.77 6.5,15.85 18.76,29.8 19.9,47.4 1.02,85.14 -16.75,200.4 -133.02,171.16 z m -439.58,465.01 c 42.04,0.16 81.63,17.24 123.15,21.75 28.85,3.15 77.7,-98.49 82.94,-120.53 -20.83,-20.53 -52.54,-19 -77.43,-31.48 -158.3,-95.89 -48.5,-655.11 -161.05,-895.02 -86.72,-219.41 -398.11,-257.12 -577.82,-137.16 -57.14,50.39 -100.09,125.29 -92.81,203.56 3.21,31.39 33.15,61.87 66.39,53.22 29.1,-3.67 46.18,-29.64 64.79,-49.24 33.09,-38.37 40.44,-90.67 67.24,-132.57 98.24,-121.86 312.22,-57.15 328.92,91.75 12.86,274.27 28.6,644.23 190.69,866.61 -141.32,25.12 -416.08,21.31 -574.44,22.44 -38.37,2.37 -77.2,-16.24 -99.86,-47.18 -31.71,-38.21 -29.57,-93.89 -15.17,-138.62 34.46,-50.85 105.23,-54.52 145.2,-99.4 34.55,-36.78 85.01,-128.13 15.54,-155.68 -38.51,-4.07 -76.66,11.71 -108.89,31.54 -113.96,87.38 -158.07,261.14 -84.71,387.67 43.51,64.32 114.88,102.54 187.4,125.28 116.09,30.99 378.95,2.85 519.92,3.06 v 0" /></g></g></g></g></svg>